<svg width="NaN" height="100" xmlns="http://www.w3.org/2000/svg">

 <g>
  <title>background</title>
  <rect fill="none" id="canvas_background" height="102" width="NaN" y="-1" x="-1"/>
 </g>
 <g>
  <title>Layer 1</title>
  <g transform="translate(7,-14) scale(0.75) " id="svg_1" class="logo-container-box logoContainerBox">
   <g transform="scale(1.0936203002929688) translate(-130,-170) " id="svg_2" class="containerBody">
    <g id="svg_3" transform="scale(1) translate(0,0) " class="sampleIconBox">
     <g id="svg_4" fill="#fd802c" transform="scale(1.6666662693023682) translate(265.46673583984375,112.00004577636719) " class="sampleIcons_1">
      <g id="svg_5">
       <path id="svg_6" d="m61,19l-17,0l0,-2l3,0l0,-2l-4,0a1,1 0 0 0 -1,1l0,3l-13,0l0,-2l3,0l0,-2l-4,0a1,1 0 0 0 -1,1l0,3l-2,0a9.011,9.011 0 0 0 -9,9l0,4a1,1 0 0 0 1,1l44,0a1,1 0 0 0 1,-1l0,-12a1,1 0 0 0 -1,-1zm-1,12l-42,0l0,-3a7.008,7.008 0 0 1 7,-7l35,0l0,10z"/>
       <path id="svg_7" d="m24,24l0,4a1,1 0 0 0 1,1l4,0a1,1 0 0 0 1,-1l0,-4a1,1 0 0 0 -1,-1l-4,0a1,1 0 0 0 -1,1zm2,1l2,0l0,2l-2,0l0,-2z"/>
       <path id="svg_8" d="m33,29l4,0a1,1 0 0 0 1,-1l0,-4a1,1 0 0 0 -1,-1l-4,0a1,1 0 0 0 -1,1l0,4a1,1 0 0 0 1,1zm1,-4l2,0l0,2l-2,0l0,-2z"/>
       <path id="svg_9" d="m41,29l4,0a1,1 0 0 0 1,-1l0,-4a1,1 0 0 0 -1,-1l-4,0a1,1 0 0 0 -1,1l0,4a1,1 0 0 0 1,1zm1,-4l2,0l0,2l-2,0l0,-2z"/>
       <path id="svg_10" d="m49,29l4,0a1,1 0 0 0 1,-1l0,-4a1,1 0 0 0 -1,-1l-4,0a1,1 0 0 0 -1,1l0,4a1,1 0 0 0 1,1zm1,-4l2,0l0,2l-2,0l0,-2z"/>
       <path id="svg_11" d="m21,49l6,0a1,1 0 0 0 1,-1l0,-6a1,1 0 0 0 -1,-1l-6,0a1,1 0 0 0 -1,1l0,6a1,1 0 0 0 1,1zm1,-6l4,0l0,4l-4,0l0,-4z"/>
       <path id="svg_12" d="m11,49l6,0a1,1 0 0 0 1,-1l0,-6a1,1 0 0 0 -1,-1l-6,0a1,1 0 0 0 -1,1l0,6a1,1 0 0 0 1,1zm1,-6l4,0l0,4l-4,0l0,-4z"/>
       <path id="svg_13" d="m3,13l7,0l0,6a1,1 0 0 0 1,1l3,0a1,1 0 0 0 0.814,-0.419l4.701,-6.581l9.485,0a1,1 0 0 0 1,-1a6.006,6.006 0 0 0 -6,-6l-14.382,0l-1.718,-3.447a1,1 0 0 0 -0.9,-0.553l-4,0a1,1 0 0 0 -1,1l0,9a1,1 0 0 0 1,1zm10.485,5l-1.485,0l0,-5l5.057,0l-3.572,5zm14.388,-7l-23.873,0l0,-3l20,0a4.007,4.007 0 0 1 3.873,3zm-23.873,-7l2.382,0l1,2l-3.382,0l0,-2z"/>
       <rect id="svg_14" height="2" width="4" y="15" x="34"/>
       <rect id="svg_15" height="2" width="4" y="15" x="49"/>
       <path id="svg_16" d="m55,62l0,-13.09a6,6 0 1 0 -2,0l0,13.09l2,0zm-5,-19a4,4 0 1 1 4,4a4,4 0 0 1 -4,-4z"/>
       <path id="svg_17" d="m3,59l2.142,0a3.981,3.981 0 0 0 7.716,0l16.284,0a3.981,3.981 0 0 0 7.716,0l4.142,0a1,1 0 0 0 1,-1l0,-20a1,1 0 0 0 -1,-1l-38,0a1,1 0 0 0 -1,1l0,20a1,1 0 0 0 1,1zm6,1a2,2 0 1 1 2,-2a2,2 0 0 1 -2,2zm24,0a2,2 0 1 1 2,-2a2,2 0 0 1 -2,2zm7,-13l-8,0l0,-4l8,0l0,4zm0,-8l0,2l-9,0a1,1 0 0 0 -1,1l0,6a1,1 0 0 0 1,1l9,0l0,2l-2,0l0,2l2,0l0,4l-3.142,0a3.981,3.981 0 0 0 -7.716,0l-16.284,0a3.981,3.981 0 0 0 -7.716,0l-1.142,0l0,-4l2,0l0,-2l-2,0l0,-2l3,0a1,1 0 0 0 1,-1l0,-6a1,1 0 0 0 -1,-1l-3,0l0,-2l36,0zm0,4l-34,0l0,4l-2,0l36,-4z"/>
      </g>
     </g>
    </g>
    <g id="svg_18" transform="scale(1) translate(0.00002746581958490424,6.125) " class="sampleTexts_1">
     <g id="svg_19" fill="#fd802c" transform="scale(1) translate(251.6800079345703,240) " class="logo--name svgLogoName_1 logoNameBox">
      <path id="svg_20" d="m18.07,-50.41l0,0q-6.15,0 -10.55,4.36l0,0l0,0q-4.36,4.35 -4.36,10.51l0,0l0,0q0,6.18 4.36,10.54l0,0l0,0q4.4,4.36 10.55,4.36l0,0l0,0q2.36,0 4.04,1.69l0,0l0,0q1.69,1.69 1.69,4.04l0,0l0,0q0,2.39 -1.69,4.05l0,0l0,0q-1.68,1.68 -4.04,1.68l0,0l0,0q-2.39,0 -4.04,-1.68l0,0l0,0q-1.69,-1.66 -1.69,-4.05l0,0l0,-1.12l-9.18,0l0,1.12l0,0q0,6.16 4.36,10.55l0,0l0,0q4.4,4.36 10.55,4.36l0,0l0,0q6.15,0 10.51,-4.36l0,0l0,0q4.4,-4.39 4.4,-10.55l0,0l0,0q0,-6.15 -4.4,-10.51l0,0l0,0q-4.36,-4.39 -10.51,-4.39l0,0l0,0q-2.39,0 -4.04,-1.65l0,0l0,0q-1.69,-1.69 -1.69,-4.08l0,0l0,0q0,-2.36 1.69,-4.05l0,0l0,0q1.65,-1.68 4.04,-1.68l0,0l0,0q2.36,0 4.04,1.68l0,0l0,0q1.69,1.69 1.69,4.05l0,0l0,1.16l9.18,0l0,-1.16l0,0q0,-6.16 -4.4,-10.51l0,0l0,0q-4.36,-4.36 -10.51,-4.36l0,0zm39.97,0l-9.52,0l-12.03,50.41l9.42,0l1.66,-6.89l11.42,0l1.62,6.89l9.42,0l-11.99,-50.41zm-8.29,34.38l3.51,-14.84l3.52,14.84l-7.03,0zm56.42,-34.38l-29.81,0l0,50.41l9.18,0l0,-20.64l16.03,0l0,-9.17l-16.03,0l0,-11.46l20.63,0l0,-9.14zm20.15,0l-9.53,0l-12.02,50.41l9.42,0l1.65,-6.89l11.43,0l1.61,6.89l9.42,0l-11.98,-50.41zm-8.3,34.38l3.52,-14.84l3.51,14.84l-7.03,0zm42.08,-12.62l-6.29,0l0,-12.62l6.29,0l0,0q2.36,0 4.04,1.68l0,0l0,0q1.69,1.69 1.69,4.05l0,0l0,1.16l0,0q0,2.35 -1.69,4.04l0,0l0,0q-1.68,1.69 -4.04,1.69l0,0zm6.86,28.65l10.16,0l-10.02,-21.23l0,0q3.58,-1.94 5.73,-5.38l0,0l0,0q2.18,-3.59 2.18,-7.77l0,0l0,-1.16l0,0q0,-6.16 -4.36,-10.51l0,0l0,0q-4.4,-4.36 -10.55,-4.36l0,0l-15.47,0l0,50.41l9.18,0l0,-19.48l4.01,0l9.14,19.48z"/>
     </g>
    </g>
   </g>
  </g>
  <text transform="matrix(0.5060634123737587,0,0,1.0609826647895915,3.9808987452342706,-4.4802361427949755) " font-style="italic" font-weight="bold" stroke="#000" xml:space="preserve" text-anchor="start" font-family="Oswald, sans-serif" font-size="29" id="svg_21" y="76.83984" x="45.88986" stroke-width="0.5" fill="#000000">Why Suffer? When Safar's Here!</text>
 </g>
</svg>
