<svg version="1.1" xmlns="http://www.w3.org/2000/svg" xmlns:xlink="http://www.w3.org/1999/xlink" xmlns:i="http://ns.adobe.com/AdobeIllustrator/10.0/" xmlns:sketch="http://www.bohemiancoding.com/sketch/ns" height="100" width="100%" x="0px" y="0px" viewBox="0 0 100% 70" class="">
<g class="logo-container-box logoContainerBox" transform="scale(0.75)" ><g class="containerBody" transform="scale(1.0936203207586916) translate(-130,-170)" ><g class="sampleIconBox" transform="scale(1) translate(0,0)"><g class="sampleIcons_1" transform="scale(1.6666662428115226) translate(265.466735873752,112.00004401206971)" fill="#fd802c"><g><path d="M61,19H44V17h3V15H43a1,1,0,0,0-1,1v3H29V17h3V15H28a1,1,0,0,0-1,1v3H25a9.011,9.011,0,0,0-9,9v4a1,1,0,0,0,1,1H61a1,1,0,0,0,1-1V20A1,1,0,0,0,61,19ZM60,31H18V28a7.008,7.008,0,0,1,7-7H60Z"></path><path d="M24,24v4a1,1,0,0,0,1,1h4a1,1,0,0,0,1-1V24a1,1,0,0,0-1-1H25A1,1,0,0,0,24,24Zm2,1h2v2H26Z"></path><path d="M33,29h4a1,1,0,0,0,1-1V24a1,1,0,0,0-1-1H33a1,1,0,0,0-1,1v4A1,1,0,0,0,33,29Zm1-4h2v2H34Z"></path><path d="M41,29h4a1,1,0,0,0,1-1V24a1,1,0,0,0-1-1H41a1,1,0,0,0-1,1v4A1,1,0,0,0,41,29Zm1-4h2v2H42Z"></path><path d="M49,29h4a1,1,0,0,0,1-1V24a1,1,0,0,0-1-1H49a1,1,0,0,0-1,1v4A1,1,0,0,0,49,29Zm1-4h2v2H50Z"></path><path d="M21,49h6a1,1,0,0,0,1-1V42a1,1,0,0,0-1-1H21a1,1,0,0,0-1,1v6A1,1,0,0,0,21,49Zm1-6h4v4H22Z"></path><path d="M11,49h6a1,1,0,0,0,1-1V42a1,1,0,0,0-1-1H11a1,1,0,0,0-1,1v6A1,1,0,0,0,11,49Zm1-6h4v4H12Z"></path><path d="M3,13h7v6a1,1,0,0,0,1,1h3a1,1,0,0,0,.814-.419L19.515,13H29a1,1,0,0,0,1-1,6.006,6.006,0,0,0-6-6H9.618L7.9,2.553A1,1,0,0,0,7,2H3A1,1,0,0,0,2,3v9A1,1,0,0,0,3,13Zm10.485,5H12V13h5.057Zm14.388-7H4V8H24A4.007,4.007,0,0,1,27.873,11ZM4,4H6.382l1,2H4Z"></path><rect x="34" y="15" width="4" height="2"></rect><rect x="49" y="15" width="4" height="2"></rect><path d="M55,62V48.91a6,6,0,1,0-2,0V62ZM50,43a4,4,0,1,1,4,4A4,4,0,0,1,50,43Z"></path><path d="M3,59H5.142a3.981,3.981,0,0,0,7.716,0H29.142a3.981,3.981,0,0,0,7.716,0H41a1,1,0,0,0,1-1V38a1,1,0,0,0-1-1H3a1,1,0,0,0-1,1V58A1,1,0,0,0,3,59Zm6,1a2,2,0,1,1,2-2A2,2,0,0,1,9,60Zm24,0a2,2,0,1,1,2-2A2,2,0,0,1,33,60Zm7-13H32V43h8Zm0-8v2H31a1,1,0,0,0-1,1v6a1,1,0,0,0,1,1h9v2H38v2h2v4H36.858a3.981,3.981,0,0,0-7.716,0H12.858a3.981,3.981,0,0,0-7.716,0H4V53H6V51H4V49H7a1,1,0,0,0,1-1V42a1,1,0,0,0-1-1H4V39ZM4,43H6v4H4Z"></path></g></g></g><g class="sampleTexts_1" transform="scale(1) translate(0.000027465820323868684,6.125)"><g class="logo--name svgLogoName_1 logoNameBox" transform="scale(1) translate(251.6800084590912,240)" fill="#fd802c"><path d="M18.07-50.41L18.07-50.41Q11.92-50.41 7.52-46.05L7.52-46.05L7.52-46.05Q3.16-41.70 3.16-35.54L3.16-35.54L3.16-35.54Q3.16-29.36 7.52-25.00L7.52-25.00L7.52-25.00Q11.92-20.64 18.07-20.64L18.07-20.64L18.07-20.64Q20.43-20.64 22.11-18.95L22.11-18.95L22.11-18.95Q23.80-17.26 23.80-14.91L23.80-14.91L23.80-14.91Q23.80-12.52 22.11-10.86L22.11-10.86L22.11-10.86Q20.43-9.18 18.07-9.18L18.07-9.18L18.07-9.18Q15.68-9.18 14.03-10.86L14.03-10.86L14.03-10.86Q12.34-12.52 12.34-14.91L12.34-14.91L12.34-16.03L3.16-16.03L3.16-14.91L3.16-14.91Q3.16-8.75 7.52-4.36L7.52-4.36L7.52-4.36Q11.92 0 18.07 0L18.07 0L18.07 0Q24.22 0 28.58-4.36L28.58-4.36L28.58-4.36Q32.98-8.75 32.98-14.91L32.98-14.91L32.98-14.91Q32.98-21.06 28.58-25.42L28.58-25.42L28.58-25.42Q24.22-29.81 18.07-29.81L18.07-29.81L18.07-29.81Q15.68-29.81 14.03-31.46L14.03-31.46L14.03-31.46Q12.34-33.15 12.34-35.54L12.34-35.54L12.34-35.54Q12.34-37.90 14.03-39.59L14.03-39.59L14.03-39.59Q15.68-41.27 18.07-41.27L18.07-41.27L18.07-41.27Q20.43-41.27 22.11-39.59L22.11-39.59L22.11-39.59Q23.80-37.90 23.80-35.54L23.80-35.54L23.80-34.38L32.98-34.38L32.98-35.54L32.98-35.54Q32.98-41.70 28.58-46.05L28.58-46.05L28.58-46.05Q24.22-50.41 18.07-50.41L18.07-50.41ZM58.04-50.41L48.52-50.41L36.49 0L45.91 0L47.57-6.89L58.99-6.89L60.61 0L70.03 0L58.04-50.41ZM49.75-16.03L53.26-30.87L56.78-16.03L49.75-16.03ZM106.17-50.41L76.36-50.41L76.36 0L85.54 0L85.54-20.64L101.57-20.64L101.57-29.81L85.54-29.81L85.54-41.27L106.17-41.27L106.17-50.41ZM126.32-50.41L116.79-50.41L104.77 0L114.19 0L115.84-6.89L127.27-6.89L128.88 0L138.30 0L126.32-50.41ZM118.02-16.03L121.54-30.87L125.05-16.03L118.02-16.03ZM160.10-28.65L153.81-28.65L153.81-41.27L160.10-41.27L160.10-41.27Q162.46-41.27 164.14-39.59L164.14-39.59L164.14-39.59Q165.83-37.90 165.83-35.54L165.83-35.54L165.83-34.38L165.83-34.38Q165.83-32.03 164.14-30.34L164.14-30.34L164.14-30.34Q162.46-28.65 160.10-28.65L160.10-28.65ZM166.96 0L177.12 0L167.10-21.23L167.10-21.23Q170.68-23.17 172.83-26.61L172.83-26.61L172.83-26.61Q175.01-30.20 175.01-34.38L175.01-34.38L175.01-35.54L175.01-35.54Q175.01-41.70 170.65-46.05L170.65-46.05L170.65-46.05Q166.25-50.41 160.10-50.41L160.10-50.41L144.63-50.41L144.63 0L153.81 0L153.81-19.48L157.82-19.48L166.96 0Z"></path></g><g id="" class="logo--name svgSloganText_1 sloganBox" transform="scale(1) translate(134.6299841284752,275.22999992370603)" fill="#00000"><path d="M7.56 0L2.52 0L0.31-20.62L4.34-20.62L5.50-7.61L6.65-20.62L10.49-20.62L11.59-7.61L12.70-20.62L16.78-20.62L14.52 0L9.58 0L8.54-9.94L7.56 0ZM17.93 0L17.93-20.74L22.25-20.74L22.25-15.84L22.25-15.84Q22.92-17.76 24.82-17.76L24.82-17.76L24.82-17.76Q26.59-17.76 27.50-16.63L27.50-16.63L27.50-16.63Q28.42-15.50 28.42-13.54L28.42-13.54L28.42 0L24.22 0L24.22-13.27L24.22-13.27Q24.22-13.85 23.95-14.21L23.95-14.21L23.95-14.21Q23.69-14.57 23.18-14.57L23.18-14.57L23.18-14.57Q22.75-14.57 22.50-14.20L22.50-14.20L22.50-14.20Q22.25-13.82 22.25-13.30L22.25-13.30L22.25 0L17.93 0ZM29.71 2.93L29.71 0.26L31.73 0.26L31.73 0.26Q32.16 0.26 32.16-0.10L32.16-0.10L32.16-0.10Q32.16-0.26 32.14-0.36L32.14-0.36L29.40-17.57L33.41-17.57L34.20-9L34.58-4.63L35.04-9L35.98-17.57L40.01-17.57L36.74 0.91L36.74 0.91Q36.58 1.94 36.06 2.44L36.06 2.44L36.06 2.44Q35.54 2.93 34.44 2.93L34.44 2.93L29.71 2.93ZM51.70 0.19L51.70 0.19Q48.89 0.19 47.64-1.20L47.64-1.20L47.64-1.20Q46.39-2.59 46.39-5.69L46.39-5.69L46.39-7.70L50.45-7.70L50.45-5.14L50.45-5.14Q50.45-3.60 51.43-3.60L51.43-3.60L51.43-3.60Q51.98-3.60 52.20-3.92L52.20-3.92L52.20-3.92Q52.42-4.25 52.42-5.02L52.42-5.02L52.42-5.02Q52.42-6.02 52.18-6.68L52.18-6.68L52.18-6.68Q51.94-7.34 51.56-7.79L51.56-7.79L51.56-7.79Q51.19-8.23 50.23-9.17L50.23-9.17L48.46-10.94L48.46-10.94Q46.39-12.96 46.39-15.41L46.39-15.41L46.39-15.41Q46.39-18.05 47.60-19.43L47.60-19.43L47.60-19.43Q48.82-20.81 51.14-20.81L51.14-20.81L51.14-20.81Q53.93-20.81 55.15-19.33L55.15-19.33L55.15-19.33Q56.38-17.86 56.38-14.71L56.38-14.71L52.18-14.71L52.15-16.13L52.15-16.13Q52.15-16.54 51.92-16.78L51.92-16.78L51.92-16.78Q51.70-17.02 51.29-17.02L51.29-17.02L51.29-17.02Q50.81-17.02 50.57-16.75L50.57-16.75L50.57-16.75Q50.33-16.49 50.33-16.03L50.33-16.03L50.33-16.03Q50.33-15.02 51.48-13.94L51.48-13.94L53.88-11.64L53.88-11.64Q54.72-10.82 55.27-10.09L55.27-10.09L55.27-10.09Q55.82-9.36 56.16-8.36L56.16-8.36L56.16-8.36Q56.50-7.37 56.50-6L56.50-6L56.50-6Q56.50-2.95 55.38-1.38L55.38-1.38L55.38-1.38Q54.26 0.19 51.70 0.19L51.70 0.19ZM61.18 0.19L61.18 0.19Q59.21 0.19 58.48-0.98L58.48-0.98L58.48-0.98Q57.74-2.16 57.74-4.49L57.74-4.49L57.74-17.57L61.97-17.57L61.97-5.33L61.97-5.33Q61.97-5.16 61.97-4.43L61.97-4.43L61.97-4.43Q61.97-3.70 62.20-3.40L62.20-3.40L62.20-3.40Q62.42-3.10 62.90-3.10L62.90-3.10L62.90-3.10Q63.55-3.10 63.72-3.64L63.72-3.64L63.72-3.64Q63.89-4.18 63.89-5.18L63.89-5.18L63.89-5.33L63.91-17.57L68.09-17.57L68.09 0L63.89 0L63.89-1.87L63.89-1.87Q63.46-0.77 62.88-0.29L62.88-0.29L62.88-0.29Q62.30 0.19 61.18 0.19L61.18 0.19ZM70.15 0L70.15-13.61L69.41-13.61L69.43-16.80L70.15-16.80L70.15-18L70.15-18Q70.15-20.83 72.98-20.83L72.98-20.83L72.98-20.83Q74.33-20.83 75.14-20.50L75.14-20.50L75.14-17.90L75.14-17.90Q74.90-17.98 74.76-17.98L74.76-17.98L74.76-17.98Q74.42-17.98 74.33-17.74L74.33-17.74L74.33-17.74Q74.23-17.50 74.23-17.02L74.23-17.02L74.23-16.80L75.14-16.80L75.14-13.56L74.33-13.56L74.33 0L70.15 0ZM76.87 0L76.87-13.61L76.13-13.61L76.15-16.80L76.87-16.80L76.87-18L76.87-18Q76.87-20.83 79.70-20.83L79.70-20.83L79.70-20.83Q81.05-20.83 81.86-20.50L81.86-20.50L81.86-17.90L81.86-17.90Q81.62-17.98 81.48-17.98L81.48-17.98L81.48-17.98Q81.14-17.98 81.05-17.74L81.05-17.74L81.05-17.74Q80.95-17.50 80.95-17.02L80.95-17.02L80.95-16.80L81.86-16.80L81.86-13.56L81.05-13.56L81.05 0L76.87 0ZM88.13 0.19L88.13 0.19Q85.42 0.19 84.24-1.30L84.24-1.30L84.24-1.30Q83.06-2.78 83.06-5.74L83.06-5.74L83.06-12.79L83.06-12.79Q83.06-15.22 84.46-16.49L84.46-16.49L84.46-16.49Q85.85-17.76 88.34-17.76L88.34-17.76L88.34-17.76Q93.41-17.76 93.41-12.79L93.41-12.79L93.41-11.52L93.41-11.52Q93.41-9.60 93.36-8.40L93.36-8.40L87.26-8.40L87.26-4.99L87.26-4.99Q87.26-4.08 87.46-3.56L87.46-3.56L87.46-3.56Q87.65-3.05 88.27-3.05L88.27-3.05L88.27-3.05Q88.75-3.05 88.96-3.34L88.96-3.34L88.96-3.34Q89.16-3.62 89.20-4.00L89.20-4.00L89.20-4.00Q89.23-4.37 89.23-5.09L89.23-5.09L89.23-6.79L93.41-6.79L93.41-5.78L93.41-5.78Q93.41-2.71 92.22-1.26L92.22-1.26L92.22-1.26Q91.03 0.19 88.13 0.19L88.13 0.19ZM87.24-10.49L89.23-10.49L89.23-12.74L89.23-12.74Q89.23-14.64 88.30-14.64L88.30-14.64L88.30-14.64Q87.24-14.64 87.24-12.74L87.24-12.74L87.24-10.49ZM94.92 0L94.92-17.57L99.12-17.57L99.12-15.62L99.12-15.62Q99.43-16.66 100.21-17.22L100.21-17.22L100.21-17.22Q100.99-17.78 102.14-17.78L102.14-17.78L102.14-14.28L102.14-14.28Q101.26-14.28 100.19-14.03L100.19-14.03L100.19-14.03Q99.12-13.78 99.12-13.44L99.12-13.44L99.12 0L94.92 0ZM103.82-5.33L103.82-10.20L103.82-10.20Q105.98-10.20 107.12-10.52L107.12-10.52L107.12-10.52Q108.26-10.85 108.82-11.90L108.82-11.90L108.82-11.90Q109.37-12.96 109.37-15.17L109.37-15.17L109.37-15.17Q109.37-16.06 109.15-16.56L109.15-16.56L109.15-16.56Q108.94-17.06 108.29-17.06L108.29-17.06L108.29-17.06Q107.62-17.06 107.40-16.49L107.40-16.49L107.40-16.49Q107.18-15.91 107.18-14.90L107.18-14.90L107.18-13.18L102.89-13.18L102.89-16.15L102.89-16.15Q102.89-18.46 104.35-19.63L104.35-19.63L104.35-19.63Q105.82-20.81 108.29-20.81L108.29-20.81L108.29-20.81Q111.29-20.81 112.55-19.21L112.55-19.21L112.55-19.21Q113.81-17.62 113.81-14.38L113.81-14.38L113.81-14.38Q113.81-11.21 112.26-9.26L112.26-9.26L112.26-9.26Q110.71-7.32 107.74-7.32L107.74-7.32L107.74-5.33L103.82-5.33ZM107.88 0L103.70 0L103.70-3.50L107.88-3.50L107.88 0ZM121.70 0L116.66 0L114.46-20.62L118.49-20.62L119.64-7.61L120.79-20.62L124.63-20.62L125.74-7.61L126.84-20.62L130.92-20.62L128.66 0L123.72 0L122.69-9.94L121.70 0ZM132.07 0L132.07-20.74L136.39-20.74L136.39-15.84L136.39-15.84Q137.06-17.76 138.96-17.76L138.96-17.76L138.96-17.76Q140.74-17.76 141.65-16.63L141.65-16.63L141.65-16.63Q142.56-15.50 142.56-13.54L142.56-13.54L142.56 0L138.36 0L138.36-13.27L138.36-13.27Q138.36-13.85 138.10-14.21L138.10-14.21L138.10-14.21Q137.83-14.57 137.33-14.57L137.33-14.57L137.33-14.57Q136.90-14.57 136.64-14.20L136.64-14.20L136.64-14.20Q136.39-13.82 136.39-13.30L136.39-13.30L136.39 0L132.07 0ZM149.11 0.19L149.11 0.19Q146.40 0.19 145.22-1.30L145.22-1.30L145.22-1.30Q144.05-2.78 144.05-5.74L144.05-5.74L144.05-12.79L144.05-12.79Q144.05-15.22 145.44-16.49L145.44-16.49L145.44-16.49Q146.83-17.76 149.33-17.76L149.33-17.76L149.33-17.76Q154.39-17.76 154.39-12.79L154.39-12.79L154.39-11.52L154.39-11.52Q154.39-9.60 154.34-8.40L154.34-8.40L148.25-8.40L148.25-4.99L148.25-4.99Q148.25-4.08 148.44-3.56L148.44-3.56L148.44-3.56Q148.63-3.05 149.26-3.05L149.26-3.05L149.26-3.05Q149.74-3.05 149.94-3.34L149.94-3.34L149.94-3.34Q150.14-3.62 150.18-4.00L150.18-4.00L150.18-4.00Q150.22-4.37 150.22-5.09L150.22-5.09L150.22-6.79L154.39-6.79L154.39-5.78L154.39-5.78Q154.39-2.71 153.20-1.26L153.20-1.26L153.20-1.26Q152.02 0.19 149.11 0.19L149.11 0.19ZM148.22-10.49L150.22-10.49L150.22-12.74L150.22-12.74Q150.22-14.64 149.28-14.64L149.28-14.64L149.28-14.64Q148.22-14.64 148.22-12.74L148.22-12.74L148.22-10.49ZM155.90 0L155.90-17.57L160.10-17.57L160.10-15.34L160.10-15.34Q160.37-16.42 161.02-17.09L161.02-17.09L161.02-17.09Q161.66-17.76 162.74-17.76L162.74-17.76L162.74-17.76Q164.52-17.76 165.37-16.67L165.37-16.67L165.37-16.67Q166.22-15.58 166.22-13.56L166.22-13.56L166.22 0L162.10 0L162.10-13.13L162.10-13.13Q162.10-13.70 161.87-14.11L161.87-14.11L161.87-14.11Q161.64-14.52 161.16-14.52L161.16-14.52L161.16-14.52Q160.51-14.52 160.31-13.93L160.31-13.93L160.31-13.93Q160.10-13.34 160.10-12.36L160.10-12.36L160.10 0L155.90 0ZM178.46 0.19L178.46 0.19Q175.66 0.19 174.41-1.20L174.41-1.20L174.41-1.20Q173.16-2.59 173.16-5.69L173.16-5.69L173.16-7.70L177.22-7.70L177.22-5.14L177.22-5.14Q177.22-3.60 178.20-3.60L178.20-3.60L178.20-3.60Q178.75-3.60 178.97-3.92L178.97-3.92L178.97-3.92Q179.18-4.25 179.18-5.02L179.18-5.02L179.18-5.02Q179.18-6.02 178.94-6.68L178.94-6.68L178.94-6.68Q178.70-7.34 178.33-7.79L178.33-7.79L178.33-7.79Q177.96-8.23 177-9.17L177-9.17L175.22-10.94L175.22-10.94Q173.16-12.96 173.16-15.41L173.16-15.41L173.16-15.41Q173.16-18.05 174.37-19.43L174.37-19.43L174.37-19.43Q175.58-20.81 177.91-20.81L177.91-20.81L177.91-20.81Q180.70-20.81 181.92-19.33L181.92-19.33L181.92-19.33Q183.14-17.86 183.14-14.71L183.14-14.71L178.94-14.71L178.92-16.13L178.92-16.13Q178.92-16.54 178.69-16.78L178.69-16.78L178.69-16.78Q178.46-17.02 178.06-17.02L178.06-17.02L178.06-17.02Q177.58-17.02 177.34-16.75L177.34-16.75L177.34-16.75Q177.10-16.49 177.10-16.03L177.10-16.03L177.10-16.03Q177.10-15.02 178.25-13.94L178.25-13.94L180.65-11.64L180.65-11.64Q181.49-10.82 182.04-10.09L182.04-10.09L182.04-10.09Q182.59-9.36 182.93-8.36L182.93-8.36L182.93-8.36Q183.26-7.37 183.26-6L183.26-6L183.26-6Q183.26-2.95 182.15-1.38L182.15-1.38L182.15-1.38Q181.03 0.19 178.46 0.19L178.46 0.19ZM187.75 0.19L187.75 0.19Q185.71 0.19 184.96-1.16L184.96-1.16L184.96-1.16Q184.20-2.52 184.20-5.04L184.20-5.04L184.20-5.04Q184.20-7.10 184.74-8.21L184.74-8.21L184.74-8.21Q185.28-9.31 186.24-9.83L186.24-9.83L186.24-9.83Q187.20-10.34 189.17-10.97L189.17-10.97L190.32-11.35L190.32-11.40L190.32-13.15L190.32-13.15Q190.32-13.85 190.04-14.22L190.04-14.22L190.04-14.22Q189.77-14.59 189.38-14.59L189.38-14.59L189.38-14.59Q189.05-14.59 188.80-14.28L188.80-14.28L188.80-14.28Q188.54-13.97 188.54-13.44L188.54-13.44L188.54-12.38L184.46-12.38L184.46-12.96L184.46-12.96Q184.46-15.55 185.68-16.66L185.68-16.66L185.68-16.66Q186.89-17.76 189.62-17.76L189.62-17.76L189.62-17.76Q191.81-17.76 193.18-16.62L193.18-16.62L193.18-16.62Q194.54-15.48 194.54-13.39L194.54-13.39L194.54 0L190.37 0L190.37-2.09L190.37-2.09Q190.06-1.01 189.37-0.41L189.37-0.41L189.37-0.41Q188.69 0.19 187.75 0.19L187.75 0.19ZM189.41-3.07L189.41-3.07Q189.89-3.07 190.09-3.47L190.09-3.47L190.09-3.47Q190.30-3.86 190.30-4.44L190.30-4.44L190.30-9.34L190.30-9.34Q189.36-8.98 188.92-8.42L188.92-8.42L188.92-8.42Q188.47-7.87 188.47-6.89L188.47-6.89L188.47-4.63L188.47-4.63Q188.47-3.07 189.41-3.07L189.41-3.07ZM196.54 0L196.54-13.61L195.79-13.61L195.82-16.80L196.54-16.80L196.54-18L196.54-18Q196.54-20.83 199.37-20.83L199.37-20.83L199.37-20.83Q200.71-20.83 201.53-20.50L201.53-20.50L201.53-17.90L201.53-17.90Q201.29-17.98 201.14-17.98L201.14-17.98L201.14-17.98Q200.81-17.98 200.71-17.74L200.71-17.74L200.71-17.74Q200.62-17.50 200.62-17.02L200.62-17.02L200.62-16.80L201.53-16.80L201.53-13.56L200.71-13.56L200.71 0L196.54 0ZM206.06 0.19L206.06 0.19Q204.02 0.19 203.27-1.16L203.27-1.16L203.27-1.16Q202.51-2.52 202.51-5.04L202.51-5.04L202.51-5.04Q202.51-7.10 203.05-8.21L203.05-8.21L203.05-8.21Q203.59-9.31 204.55-9.83L204.55-9.83L204.55-9.83Q205.51-10.34 207.48-10.97L207.48-10.97L208.63-11.35L208.63-11.40L208.63-13.15L208.63-13.15Q208.63-13.85 208.36-14.22L208.36-14.22L208.36-14.22Q208.08-14.59 207.70-14.59L207.70-14.59L207.70-14.59Q207.36-14.59 207.11-14.28L207.11-14.28L207.11-14.28Q206.86-13.97 206.86-13.44L206.86-13.44L206.86-12.38L202.78-12.38L202.78-12.96L202.78-12.96Q202.78-15.55 203.99-16.66L203.99-16.66L203.99-16.66Q205.20-17.76 207.94-17.76L207.94-17.76L207.94-17.76Q210.12-17.76 211.49-16.62L211.49-16.62L211.49-16.62Q212.86-15.48 212.86-13.39L212.86-13.39L212.86 0L208.68 0L208.68-2.09L208.68-2.09Q208.37-1.01 207.68-0.41L207.68-0.41L207.68-0.41Q207 0.19 206.06 0.19L206.06 0.19ZM207.72-3.07L207.72-3.07Q208.20-3.07 208.40-3.47L208.40-3.47L208.40-3.47Q208.61-3.86 208.61-4.44L208.61-4.44L208.61-9.34L208.61-9.34Q207.67-8.98 207.23-8.42L207.23-8.42L207.23-8.42Q206.78-7.87 206.78-6.89L206.78-6.89L206.78-4.63L206.78-4.63Q206.78-3.07 207.72-3.07L207.72-3.07ZM214.46 0L214.46-17.57L218.66-17.57L218.66-15.62L218.66-15.62Q218.98-16.66 219.76-17.22L219.76-17.22L219.76-17.22Q220.54-17.78 221.69-17.78L221.69-17.78L221.69-14.28L221.69-14.28Q220.80-14.28 219.73-14.03L219.73-14.03L219.73-14.03Q218.66-13.78 218.66-13.44L218.66-13.44L218.66 0L214.46 0ZM227.54 0.19L227.54 0.19Q222.34 0.19 222.34-5.09L222.34-5.09L222.36-6.48L226.56-6.48L226.58-4.42L226.58-4.42Q226.58-3.79 226.82-3.47L226.82-3.47L226.82-3.47Q227.06-3.14 227.62-3.14L227.62-3.14L227.62-3.14Q228.46-3.14 228.46-4.51L228.46-4.51L228.46-4.51Q228.46-5.52 228.06-6.10L228.06-6.10L228.06-6.10Q227.66-6.67 226.80-7.32L226.80-7.32L224.57-9.05L224.57-9.05Q223.42-9.94 222.91-10.88L222.91-10.88L222.91-10.88Q222.41-11.83 222.41-13.56L222.41-13.56L222.41-13.56Q222.41-14.90 223.12-15.85L223.12-15.85L223.12-15.85Q223.82-16.80 225.00-17.28L225.00-17.28L225.00-17.28Q226.18-17.76 227.62-17.76L227.62-17.76L227.62-17.76Q232.73-17.76 232.73-12.67L232.73-12.67L232.73-12.34L228.38-12.34L228.38-13.01L228.38-13.01Q228.38-13.63 228.18-14.08L228.18-14.08L228.18-14.08Q227.98-14.52 227.50-14.52L227.50-14.52L227.50-14.52Q227.06-14.52 226.84-14.27L226.84-14.27L226.84-14.27Q226.61-14.02 226.61-13.58L226.61-13.58L226.61-13.58Q226.61-12.62 227.35-12.10L227.35-12.10L229.94-10.20L229.94-10.20Q231.34-9.17 232.08-7.96L232.08-7.96L232.08-7.96Q232.82-6.74 232.82-4.90L232.82-4.90L232.82-4.90Q232.82-2.45 231.43-1.13L231.43-1.13L231.43-1.13Q230.04 0.19 227.54 0.19L227.54 0.19ZM239.74 0L239.74-20.74L244.06-20.74L244.06-15.84L244.06-15.84Q244.73-17.76 246.62-17.76L246.62-17.76L246.62-17.76Q248.40-17.76 249.31-16.63L249.31-16.63L249.31-16.63Q250.22-15.50 250.22-13.54L250.22-13.54L250.22 0L246.02 0L246.02-13.27L246.02-13.27Q246.02-13.85 245.76-14.21L245.76-14.21L245.76-14.21Q245.50-14.57 244.99-14.57L244.99-14.57L244.99-14.57Q244.56-14.57 244.31-14.20L244.31-14.20L244.31-14.20Q244.06-13.82 244.06-13.30L244.06-13.30L244.06 0L239.74 0ZM256.78 0.19L256.78 0.19Q254.06 0.19 252.89-1.30L252.89-1.30L252.89-1.30Q251.71-2.78 251.71-5.74L251.71-5.74L251.71-12.79L251.71-12.79Q251.71-15.22 253.10-16.49L253.10-16.49L253.10-16.49Q254.50-17.76 256.99-17.76L256.99-17.76L256.99-17.76Q262.06-17.76 262.06-12.79L262.06-12.79L262.06-11.52L262.06-11.52Q262.06-9.60 262.01-8.40L262.01-8.40L255.91-8.40L255.91-4.99L255.91-4.99Q255.91-4.08 256.10-3.56L256.10-3.56L256.10-3.56Q256.30-3.05 256.92-3.05L256.92-3.05L256.92-3.05Q257.40-3.05 257.60-3.34L257.60-3.34L257.60-3.34Q257.81-3.62 257.84-4.00L257.84-4.00L257.84-4.00Q257.88-4.37 257.88-5.09L257.88-5.09L257.88-6.79L262.06-6.79L262.06-5.78L262.06-5.78Q262.06-2.71 260.87-1.26L260.87-1.26L260.87-1.26Q259.68 0.19 256.78 0.19L256.78 0.19ZM255.89-10.49L257.88-10.49L257.88-12.74L257.88-12.74Q257.88-14.64 256.94-14.64L256.94-14.64L256.94-14.64Q255.89-14.64 255.89-12.74L255.89-12.74L255.89-10.49ZM263.57 0L263.57-17.57L267.77-17.57L267.77-15.62L267.77-15.62Q268.08-16.66 268.86-17.22L268.86-17.22L268.86-17.22Q269.64-17.78 270.79-17.78L270.79-17.78L270.79-14.28L270.79-14.28Q269.90-14.28 268.84-14.03L268.84-14.03L268.84-14.03Q267.77-13.78 267.77-13.44L267.77-13.44L267.77 0L263.57 0ZM276.74 0.19L276.74 0.19Q274.03 0.19 272.86-1.30L272.86-1.30L272.86-1.30Q271.68-2.78 271.68-5.74L271.68-5.74L271.68-12.79L271.68-12.79Q271.68-15.22 273.07-16.49L273.07-16.49L273.07-16.49Q274.46-17.76 276.96-17.76L276.96-17.76L276.96-17.76Q282.02-17.76 282.02-12.79L282.02-12.79L282.02-11.52L282.02-11.52Q282.02-9.60 281.98-8.40L281.98-8.40L275.88-8.40L275.88-4.99L275.88-4.99Q275.88-4.08 276.07-3.56L276.07-3.56L276.07-3.56Q276.26-3.05 276.89-3.05L276.89-3.05L276.89-3.05Q277.37-3.05 277.57-3.34L277.57-3.34L277.57-3.34Q277.78-3.62 277.81-4.00L277.81-4.00L277.81-4.00Q277.85-4.37 277.85-5.09L277.85-5.09L277.85-6.79L282.02-6.79L282.02-5.78L282.02-5.78Q282.02-2.71 280.84-1.26L280.84-1.26L280.84-1.26Q279.65 0.19 276.74 0.19L276.74 0.19ZM275.86-10.49L277.85-10.49L277.85-12.74L277.85-12.74Q277.85-14.64 276.91-14.64L276.91-14.64L276.91-14.64Q275.86-14.64 275.86-12.74L275.86-12.74L275.86-10.49ZM284.18-5.33L284.18-10.20L284.18-10.20Q286.34-10.20 287.48-10.52L287.48-10.52L287.48-10.52Q288.62-10.85 289.18-11.90L289.18-11.90L289.18-11.90Q289.73-12.96 289.73-15.17L289.73-15.17L289.73-15.17Q289.73-16.06 289.51-16.56L289.51-16.56L289.51-16.56Q289.30-17.06 288.65-17.06L288.65-17.06L288.65-17.06Q287.98-17.06 287.76-16.49L287.76-16.49L287.76-16.49Q287.54-15.91 287.54-14.90L287.54-14.90L287.54-13.18L283.25-13.18L283.25-16.15L283.25-16.15Q283.25-18.46 284.71-19.63L284.71-19.63L284.71-19.63Q286.18-20.81 288.65-20.81L288.65-20.81L288.65-20.81Q291.65-20.81 292.91-19.21L292.91-19.21L292.91-19.21Q294.17-17.62 294.17-14.38L294.17-14.38L294.17-14.38Q294.17-11.21 292.62-9.26L292.62-9.26L292.62-9.26Q291.07-7.32 288.10-7.32L288.10-7.32L288.10-5.33L284.18-5.33ZM288.24 0L284.06 0L284.06-3.50L288.24-3.50L288.24 0Z"></path></g></g></g></g>
</svg>
